<svg width="25" height="24" viewBox="0 0 25 24" fill="none" xmlns="http://www.w3.org/2000/svg">
<path fill-rule="evenodd" clip-rule="evenodd" d="M16.334 3.24219H8.33398C5.57256 3.24219 3.33398 5.48077 3.33398 8.24219V16.2422C3.33398 19.0036 5.57256 21.2422 8.33398 21.2422H16.334C19.0954 21.2422 21.334 19.0036 21.334 16.2422V8.24219C21.334 5.48077 19.0954 3.24219 16.334 3.24219ZM19.584 16.2422C19.5785 18.0348 18.1266 19.4867 16.334 19.4922H8.33398C6.54133 19.4867 5.08947 18.0348 5.08398 16.2422V8.24219C5.08947 6.44954 6.54133 4.99768 8.33398 4.99219H16.334C18.1266 4.99768 19.5785 6.44954 19.584 8.24219V16.2422ZM17.084 8.49219C17.6363 8.49219 18.084 8.04447 18.084 7.49219C18.084 6.93991 17.6363 6.49219 17.084 6.49219C16.5317 6.49219 16.084 6.93991 16.084 7.49219C16.084 8.04447 16.5317 8.49219 17.084 8.49219ZM12.334 7.74219C9.8487 7.74219 7.83398 9.75691 7.83398 12.2422C7.83398 14.7275 9.8487 16.7422 12.334 16.7422C14.8193 16.7422 16.834 14.7275 16.834 12.2422C16.8367 11.0479 16.3634 9.90176 15.5189 9.05727C14.6744 8.21278 13.5283 7.73953 12.334 7.74219ZM9.58398 12.2422C9.58398 13.761 10.8152 14.9922 12.334 14.9922C13.8528 14.9922 15.084 13.761 15.084 12.2422C15.084 10.7234 13.8528 9.49219 12.334 9.49219C10.8152 9.49219 9.58398 10.7234 9.58398 12.2422Z" fill="white"/>
</svg>
