<svg width="186" height="57" viewBox="0 0 186 57" fill="none" xmlns="http://www.w3.org/2000/svg">
<g clip-path="url(#clip0_357_307)">
<mask id="mask0_357_307" style="mask-type:luminance" maskUnits="userSpaceOnUse" x="0" y="8" width="42" height="41">
<path d="M42 8H0V49H42V8Z" fill="white"/>
</mask>
<g mask="url(#mask0_357_307)">
<path d="M7 25.0832C7 23.1962 5.433 21.6665 3.5 21.6665C1.567 21.6665 0 23.1962 0 25.0832V31.9165C0 33.8034 1.567 35.3332 3.5 35.3332C5.433 35.3332 7 33.8034 7 31.9165V25.0832Z" fill="url(#paint0_linear_357_307)"/>
<path d="M15.75 18.2502C15.75 16.3632 14.183 14.8335 12.25 14.8335C10.317 14.8335 8.75 16.3632 8.75 18.2502V38.7502C8.75 40.6371 10.317 42.1668 12.25 42.1668C14.183 42.1668 15.75 40.6371 15.75 38.7502V18.2502Z" fill="url(#paint1_linear_357_307)"/>
<path d="M24.5 11.4167C24.5 9.52969 22.933 8 21 8C19.067 8 17.5 9.52969 17.5 11.4167V45.5833C17.5 47.4703 19.067 49 21 49C22.933 49 24.5 47.4703 24.5 45.5833V11.4167Z" fill="url(#paint2_linear_357_307)"/>
<path d="M33.25 18.2502C33.25 16.3632 31.683 14.8335 29.75 14.8335C27.817 14.8335 26.25 16.3632 26.25 18.2502V38.7502C26.25 40.6371 27.817 42.1668 29.75 42.1668C31.683 42.1668 33.25 40.6371 33.25 38.7502V18.2502Z" fill="url(#paint3_linear_357_307)"/>
<path d="M42 25.0832C42 23.1962 40.433 21.6665 38.5 21.6665C36.567 21.6665 35 23.1962 35 25.0832V31.9165C35 33.8034 36.567 35.3332 38.5 35.3332C40.433 35.3332 42 33.8034 42 31.9165V25.0832Z" fill="url(#paint4_linear_357_307)"/>
</g>
</g>
<path d="M53.7009 17.325V43.5H48.543V17.325H53.7009ZM69.3705 22.425C71.8021 22.425 73.767 23.2125 75.2653 24.7875C76.7636 26.3374 77.5127 28.5124 77.5127 31.3125V43.5H72.3548V32.025C72.3548 30.375 71.9495 29.1125 71.139 28.2375C70.3284 27.3375 69.2232 26.8875 67.8232 26.8875C66.3986 26.8875 65.2688 27.3375 64.4337 28.2375C63.6232 29.1125 63.2179 30.375 63.2179 32.025V43.5H58.06V22.725H63.2179V25.3125C63.9057 24.4125 64.7775 23.7125 65.8337 23.2125C66.9144 22.6875 68.0933 22.425 69.3705 22.425ZM87.6859 27.0375V37.0875C87.6859 37.7876 87.8457 38.2999 88.1649 38.625C88.5088 38.925 89.0737 39.075 89.8596 39.075H92.2544V43.5H89.0123C84.6649 43.5 82.4912 41.3501 82.4912 37.05V27.0375H80.0596V22.725H82.4912V17.5875H87.6859V22.725H92.2544V27.0375H87.6859ZM114.201 32.6625C114.201 33.4125 114.152 34.0875 114.054 34.6875H99.1326C99.2554 36.1875 99.7712 37.3625 100.68 38.2125C101.589 39.0626 102.706 39.4875 104.033 39.4875C105.948 39.4875 107.312 38.65 108.122 36.975H113.685C113.096 38.9749 111.966 40.625 110.296 41.925C108.626 43.2 106.575 43.8375 104.143 43.8375C102.178 43.8375 100.41 43.4 98.8379 42.525C97.2905 41.625 96.0747 40.3625 95.1905 38.7375C94.3309 37.1126 93.9011 35.2376 93.9011 33.1125C93.9011 30.9626 94.3309 29.0749 95.1905 27.45C96.0501 25.825 97.2537 24.575 98.8011 23.7C100.348 22.8251 102.129 22.3875 104.143 22.3875C106.084 22.3875 107.815 22.8124 109.338 23.6625C110.885 24.5125 112.076 25.725 112.912 27.3C113.771 28.85 114.201 30.6375 114.201 32.6625ZM108.859 31.1625C108.834 29.8125 108.355 28.7374 107.422 27.9375C106.489 27.1125 105.347 26.7 103.996 26.7C102.719 26.7 101.638 27.1001 100.754 27.9C99.8941 28.6751 99.3659 29.7625 99.1695 31.1625H108.859ZM122.387 25.95C123.05 24.85 123.91 23.9875 124.966 23.3625C126.047 22.7374 127.275 22.425 128.65 22.425V27.9375H127.287C125.666 27.9375 124.438 28.3249 123.603 29.1C122.792 29.875 122.387 31.2251 122.387 33.15V43.5H117.229V22.725H122.387V25.95ZM139.898 38.6625L145.056 22.725H150.545L142.993 43.5H136.729L129.214 22.725H134.74L139.898 38.6625ZM151.379 33.0375C151.379 30.9375 151.784 29.0749 152.595 27.45C153.43 25.825 154.547 24.575 155.947 23.7C157.372 22.8251 158.956 22.3875 160.7 22.3875C162.223 22.3875 163.549 22.7 164.679 23.325C165.833 23.9501 166.755 24.7375 167.442 25.6875V22.725H172.637V43.5H167.442V40.4625C166.779 41.4375 165.858 42.2501 164.679 42.9C163.525 43.5251 162.186 43.8375 160.663 43.8375C158.944 43.8375 157.372 43.3875 155.947 42.4875C154.547 41.5875 153.43 40.3249 152.595 38.7C151.784 37.05 151.379 35.1625 151.379 33.0375ZM167.442 33.1125C167.442 31.8375 167.197 30.75 166.705 29.85C166.214 28.9249 165.551 28.2251 164.716 27.75C163.881 27.2501 162.984 27 162.026 27C161.068 27 160.184 27.2375 159.374 27.7125C158.563 28.1876 157.9 28.8875 157.384 29.8125C156.893 30.7125 156.647 31.7875 156.647 33.0375C156.647 34.2874 156.893 35.3876 157.384 36.3375C157.9 37.2626 158.563 37.975 159.374 38.475C160.209 38.9749 161.093 39.225 162.026 39.225C162.984 39.225 163.881 38.9875 164.716 38.5125C165.551 38.0125 166.214 37.3125 166.705 36.4125C167.197 35.4874 167.442 34.3875 167.442 33.1125ZM182.096 15.75V43.5H176.938V15.75H182.096Z" fill="white"/>
<path d="M134.067 9.49187C135.199 9.49187 136.118 9.85787 136.826 10.5899C137.545 11.3099 137.904 12.3599 137.904 13.7399V19.4999H136.684V13.8839C136.684 12.8159 136.431 11.9999 135.924 11.4359C135.417 10.8719 134.727 10.5899 133.855 10.5899C132.947 10.5899 132.222 10.8959 131.68 11.5079C131.137 12.1199 130.866 13.0079 130.866 14.1719V19.4999H129.646V13.8839C129.646 12.8159 129.392 11.9999 128.886 11.4359C128.379 10.8719 127.683 10.5899 126.799 10.5899C125.891 10.5899 125.166 10.8959 124.624 11.5079C124.081 12.1199 123.81 13.0079 123.81 14.1719V19.4999H122.572V9.67187H123.81V11.3639C124.117 10.7519 124.553 10.2899 125.119 9.97787C125.685 9.65387 126.315 9.49187 127.011 9.49187C127.848 9.49187 128.579 9.69587 129.204 10.1039C129.84 10.5119 130.3 11.1119 130.583 11.9039C130.843 11.1239 131.285 10.5299 131.91 10.1219C132.546 9.70187 133.265 9.49187 134.067 9.49187ZM149.018 9.67187V19.4999H147.78V17.7719C147.497 18.3839 147.061 18.8519 146.472 19.1759C145.882 19.4999 145.222 19.6619 144.491 19.6619C143.336 19.6619 142.393 19.3019 141.662 18.5819C140.931 17.8499 140.565 16.7939 140.565 15.4139V9.67187H141.785V15.2699C141.785 16.3379 142.045 17.1539 142.564 17.7179C143.094 18.2819 143.813 18.5639 144.721 18.5639C145.652 18.5639 146.395 18.2639 146.949 17.6639C147.503 17.0639 147.78 16.1819 147.78 15.0179V9.67187H149.018ZM155.169 19.6439C154.061 19.6439 153.153 19.3859 152.446 18.8699C151.75 18.3419 151.361 17.6279 151.279 16.7279H152.552C152.611 17.2799 152.864 17.7299 153.312 18.0779C153.772 18.4139 154.385 18.5819 155.151 18.5819C155.823 18.5819 156.348 18.4199 156.725 18.0959C157.114 17.7719 157.309 17.3699 157.309 16.8899C157.309 16.5539 157.203 16.2779 156.991 16.0619C156.778 15.8459 156.507 15.6779 156.177 15.5579C155.859 15.4259 155.423 15.2879 154.868 15.1439C154.149 14.9519 153.566 14.7599 153.118 14.5679C152.67 14.3759 152.287 14.0939 151.968 13.7219C151.662 13.3379 151.508 12.8279 151.508 12.1919C151.508 11.7119 151.65 11.2679 151.933 10.8599C152.216 10.4519 152.617 10.1279 153.135 9.88787C153.654 9.64787 154.244 9.52787 154.904 9.52787C155.941 9.52787 156.778 9.79787 157.415 10.3379C158.052 10.8659 158.394 11.5979 158.441 12.5339H157.203C157.167 11.9579 156.943 11.4959 156.531 11.1479C156.13 10.7879 155.576 10.6079 154.868 10.6079C154.244 10.6079 153.737 10.7579 153.348 11.0579C152.959 11.3579 152.764 11.7299 152.764 12.1739C152.764 12.5579 152.876 12.8759 153.1 13.1279C153.336 13.3679 153.625 13.5599 153.967 13.7039C154.308 13.8359 154.768 13.9859 155.346 14.1539C156.042 14.3459 156.596 14.5319 157.008 14.7119C157.421 14.8919 157.775 15.1559 158.069 15.5039C158.364 15.8519 158.517 16.3139 158.529 16.8899C158.529 17.4179 158.388 17.8919 158.105 18.3119C157.822 18.7199 157.427 19.0439 156.92 19.2839C156.413 19.5239 155.829 19.6439 155.169 19.6439ZM161.478 7.81787C161.231 7.81787 161.018 7.72787 160.842 7.54787C160.665 7.36787 160.576 7.14587 160.576 6.88187C160.576 6.61787 160.665 6.40187 160.842 6.23387C161.018 6.05387 161.231 5.96387 161.478 5.96387C161.726 5.96387 161.938 6.05387 162.115 6.23387C162.292 6.40187 162.38 6.61787 162.38 6.88187C162.38 7.14587 162.292 7.36787 162.115 7.54787C161.938 7.72787 161.726 7.81787 161.478 7.81787ZM162.097 9.67187V19.4999H160.859V9.67187H162.097ZM164.335 14.5859C164.335 13.5659 164.535 12.6779 164.936 11.9219C165.337 11.1539 165.891 10.5659 166.598 10.1579C167.306 9.73787 168.113 9.52787 169.021 9.52787C170.212 9.52787 171.19 9.82787 171.956 10.4279C172.735 11.0279 173.236 11.8439 173.46 12.8759H172.133C171.968 12.1679 171.609 11.6159 171.055 11.2199C170.512 10.8119 169.834 10.6079 169.021 10.6079C168.372 10.6079 167.789 10.7579 167.27 11.0579C166.751 11.3579 166.339 11.8079 166.032 12.4079C165.738 12.9959 165.59 13.7219 165.59 14.5859C165.59 15.4499 165.738 16.1819 166.032 16.7819C166.339 17.3819 166.751 17.8319 167.27 18.1319C167.789 18.4319 168.372 18.5819 169.021 18.5819C169.834 18.5819 170.512 18.3839 171.055 17.9879C171.609 17.5799 171.968 17.0159 172.133 16.2959H173.46C173.236 17.3039 172.735 18.1139 171.956 18.7259C171.178 19.3379 170.2 19.6439 169.021 19.6439C168.113 19.6439 167.306 19.4399 166.598 19.0319C165.891 18.6119 165.337 18.0239 164.936 17.2679C164.535 16.4999 164.335 15.6059 164.335 14.5859Z" fill="white"/>
<defs>
<linearGradient id="paint0_linear_357_307" x1="-2.07205" y1="30.598" x2="5.98891" y2="30.8203" gradientUnits="userSpaceOnUse">
<stop stop-color="#5DCDE9"/>
<stop offset="1" stop-color="#0F75E8"/>
</linearGradient>
<linearGradient id="paint1_linear_357_307" x1="6.67795" y1="32.6966" x2="14.7435" y2="32.8077" gradientUnits="userSpaceOnUse">
<stop stop-color="#5DCDE9"/>
<stop offset="1" stop-color="#0F75E8"/>
</linearGradient>
<linearGradient id="paint2_linear_357_307" x1="15.428" y1="34.7946" x2="23.4944" y2="34.8687" gradientUnits="userSpaceOnUse">
<stop stop-color="#5DCDE9"/>
<stop offset="1" stop-color="#0F75E8"/>
</linearGradient>
<linearGradient id="paint3_linear_357_307" x1="24.178" y1="32.6966" x2="32.2435" y2="32.8077" gradientUnits="userSpaceOnUse">
<stop stop-color="#5DCDE9"/>
<stop offset="1" stop-color="#0F75E8"/>
</linearGradient>
<linearGradient id="paint4_linear_357_307" x1="32.928" y1="30.598" x2="40.9889" y2="30.8203" gradientUnits="userSpaceOnUse">
<stop stop-color="#5DCDE9"/>
<stop offset="1" stop-color="#0F75E8"/>
</linearGradient>
<clipPath id="clip0_357_307">
<rect width="42" height="41" fill="white" transform="translate(0 8)"/>
</clipPath>
</defs>
</svg>
