<svg width="25" height="24" viewBox="0 0 25 24" fill="none" xmlns="http://www.w3.org/2000/svg">
<path d="M20.1595 17.6794C20.0468 18.4587 18.4561 20.4798 17.724 20.7728C17.475 20.8726 17.2335 20.8479 17.0403 20.6998C16.9158 20.6032 16.7881 20.4079 15.0729 17.6236L14.563 16.7939C14.3666 16.4966 14.4042 16.1048 14.6468 15.8064C14.8861 15.5166 15.236 15.4093 15.5398 15.5252C15.557 15.5338 16.8224 15.9514 16.8224 15.9514C19.7076 16.8991 19.801 16.9356 19.9255 17.0268C20.1079 17.176 20.1927 17.409 20.1552 17.6794H20.1595ZM14.3784 13.444C14.1745 13.1338 14.1777 12.7678 14.3892 12.5156L15.1899 11.4218C16.9523 9.02291 17.0489 8.89626 17.168 8.81254C17.2715 8.74544 17.3912 8.70762 17.5144 8.70308C17.6376 8.69855 17.7598 8.72747 17.8679 8.78678C18.5666 9.12596 19.9781 11.2222 20.0629 12.0272V12.054C20.078 12.1744 20.0602 12.2966 20.0112 12.4076C19.9622 12.5186 19.884 12.6142 19.7849 12.6841C19.6528 12.7689 19.5326 12.8183 16.2525 13.6136C15.7341 13.7456 15.4453 13.8175 15.2757 13.8787L15.2983 13.854C14.9741 13.9517 14.6113 13.795 14.4063 13.4709L14.3784 13.444ZM12.3659 12.2C12.2092 12.2494 11.7316 12.3986 11.1434 11.4465C11.1434 11.4465 7.17843 5.20718 7.08612 5.01505C7.02924 4.7993 7.09793 4.55458 7.29006 4.35709C7.8804 3.74635 11.0833 2.84904 11.9215 3.05297C12.1952 3.12381 12.3831 3.29662 12.4486 3.5392C12.4969 3.80753 12.8865 9.5993 12.9423 10.8959C12.997 12.0057 12.5215 12.1528 12.3659 12.2ZM12.8886 18.5467C12.88 21.581 12.8725 21.683 12.8231 21.8268C12.7384 22.0533 12.5441 22.2047 12.2757 22.254C11.5029 22.385 9.08576 21.492 8.58236 20.8941C8.49063 20.7798 8.43231 20.6424 8.41385 20.497C8.3999 20.4004 8.41385 20.3038 8.44927 20.219C8.51045 20.0623 8.59417 19.941 10.7655 17.3961L11.4031 16.6383C11.621 16.3592 12.0074 16.2755 12.368 16.4193C12.7169 16.5524 12.9348 16.854 12.9112 17.1793V18.5306L12.8886 18.5467ZM6.30902 16.6061C6.07074 16.5997 5.85822 16.4558 5.73478 16.2218C5.64569 16.048 5.58237 15.7624 5.54158 15.4147C5.4321 14.3692 5.56627 12.7914 5.87861 12.2902C6.02673 12.0605 6.2414 11.9392 6.47861 11.9478C6.63532 11.9478 6.77485 11.9972 9.87789 13.2744L10.7881 13.6361C11.1122 13.7553 11.313 14.0945 11.2947 14.4809C11.2711 14.8544 11.0543 15.142 10.7355 15.2279L9.44533 15.6379C6.55911 16.5653 6.46358 16.5911 6.31224 16.5793L6.30902 16.6061ZM18.3519 22.3184H18.3477L18.3444 22.3216L18.3519 22.3184Z" fill="white"/>
</svg>
