<svg width="49" height="48" viewBox="0 0 49 48" fill="none" xmlns="http://www.w3.org/2000/svg">
<path d="M5.2817 24.9231H12.6663C12.6663 24.9231 14.5125 24.9231 14.5125 26.7692V43.3846C14.5125 43.3846 14.5125 45.2308 12.6663 45.2308H5.2817C5.2817 45.2308 3.43555 45.2308 3.43555 43.3846V26.7692C3.43555 26.7692 3.43555 24.9231 5.2817 24.9231Z" stroke="url(#paint0_linear_188_2459)" stroke-width="2" stroke-linecap="round" stroke-linejoin="round"/>
<path d="M5.28125 8.30769V21.2308" stroke="url(#paint1_linear_188_2459)" stroke-width="2" stroke-linecap="round" stroke-linejoin="round"/>
<path d="M7.12695 30.4615C7.12695 30.9512 7.32146 31.4207 7.66768 31.767C8.0139 32.1132 8.48348 32.3077 8.97311 32.3077C9.46274 32.3077 9.93231 32.1132 10.2785 31.767C10.6248 31.4207 10.8193 30.9512 10.8193 30.4615C10.8193 29.9719 10.6248 29.5023 10.2785 29.1561C9.93231 28.8099 9.46274 28.6154 8.97311 28.6154C8.48348 28.6154 8.0139 28.8099 7.66768 29.1561C7.32146 29.5023 7.12695 29.9719 7.12695 30.4615Z" stroke="url(#paint2_linear_188_2459)" stroke-width="2" stroke-linecap="round" stroke-linejoin="round"/>
<path d="M7.12695 39.6923C7.12695 40.1819 7.32146 40.6515 7.66768 40.9977C8.0139 41.344 8.48348 41.5385 8.97311 41.5385C9.46274 41.5385 9.93231 41.344 10.2785 40.9977C10.6248 40.6515 10.8193 40.1819 10.8193 39.6923C10.8193 39.2027 10.6248 38.7331 10.2785 38.3869C9.93231 38.0407 9.46274 37.8462 8.97311 37.8462C8.48348 37.8462 8.0139 38.0407 7.66768 38.3869C7.32146 38.7331 7.12695 39.2027 7.12695 39.6923Z" stroke="url(#paint3_linear_188_2459)" stroke-width="2" stroke-linecap="round" stroke-linejoin="round"/>
<path d="M44.0503 45.2308H36.6657C36.6657 45.2308 34.8196 45.2308 34.8196 43.3846V26.7692C34.8196 26.7692 34.8196 24.9231 36.6657 24.9231H44.0503C44.0503 24.9231 45.8965 24.9231 45.8965 26.7692V43.3846C45.8965 43.3846 45.8965 45.2308 44.0503 45.2308Z" stroke="url(#paint4_linear_188_2459)" stroke-width="2" stroke-linecap="round" stroke-linejoin="round"/>
<path d="M44.0508 8.30769V21.2308" stroke="url(#paint5_linear_188_2459)" stroke-width="2" stroke-linecap="round" stroke-linejoin="round"/>
<path d="M38.5117 30.4615C38.5117 30.9512 38.7062 31.4207 39.0524 31.767C39.3987 32.1132 39.8682 32.3077 40.3579 32.3077C40.8475 32.3077 41.3171 32.1132 41.6633 31.767C42.0095 31.4207 42.204 30.9512 42.204 30.4615C42.204 29.9719 42.0095 29.5023 41.6633 29.1561C41.3171 28.8099 40.8475 28.6154 40.3579 28.6154C39.8682 28.6154 39.3987 28.8099 39.0524 29.1561C38.7062 29.5023 38.5117 29.9719 38.5117 30.4615Z" stroke="url(#paint6_linear_188_2459)" stroke-width="3" stroke-linecap="round" stroke-linejoin="round"/>
<path d="M38.5117 39.6923C38.5117 40.1819 38.7062 40.6515 39.0524 40.9977C39.3987 41.344 39.8682 41.5385 40.3579 41.5385C40.8475 41.5385 41.3171 41.344 41.6633 40.9977C42.0095 40.6515 42.204 40.1819 42.204 39.6923C42.204 39.2027 42.0095 38.7331 41.6633 38.3869C41.3171 38.0407 40.8475 37.8462 40.3579 37.8462C39.8682 37.8462 39.3987 38.0407 39.0524 38.3869C38.7062 38.7331 38.5117 39.2027 38.5117 39.6923Z" stroke="url(#paint7_linear_188_2459)" stroke-width="3" stroke-linecap="round" stroke-linejoin="round"/>
<path d="M12.666 45.2308H36.666" stroke="url(#paint8_linear_188_2459)" stroke-width="2" stroke-linecap="round" stroke-linejoin="round"/>
<path d="M31.1282 39.6923H18.2051" stroke="url(#paint9_linear_188_2459)" stroke-width="2" stroke-linecap="round" stroke-linejoin="round"/>
<path d="M16.3574 17.5385C16.3574 18.0281 16.5519 18.4977 16.8981 18.8439C17.2444 19.1901 17.7139 19.3846 18.2036 19.3846C18.6932 19.3846 19.1628 19.1901 19.509 18.8439C19.8552 18.4977 20.0497 18.0281 20.0497 17.5385C20.0497 17.0488 19.8552 16.5793 19.509 16.233C19.1628 15.8868 18.6932 15.6923 18.2036 15.6923C17.7139 15.6923 17.2444 15.8868 16.8981 16.233C16.5519 16.5793 16.3574 17.0488 16.3574 17.5385Z" stroke="url(#paint10_linear_188_2459)" stroke-width="2" stroke-linecap="round" stroke-linejoin="round"/>
<path d="M20.0508 17.5385V12.9231C20.0508 12.4154 20.396 12.2308 20.8188 12.5114L22.82 13.8462" stroke="url(#paint11_linear_188_2459)" stroke-width="2" stroke-linecap="round" stroke-linejoin="round"/>
<path d="M21.8965 24.9231C21.8965 25.4127 22.091 25.8823 22.4372 26.2285C22.7834 26.5747 23.253 26.7692 23.7426 26.7692C24.2323 26.7692 24.7018 26.5747 25.0481 26.2285C25.3943 25.8823 25.5888 25.4127 25.5888 24.9231C25.5888 24.4334 25.3943 23.9639 25.0481 23.6176C24.7018 23.2714 24.2323 23.0769 23.7426 23.0769C23.253 23.0769 22.7834 23.2714 22.4372 23.6176C22.091 23.9639 21.8965 24.4334 21.8965 24.9231Z" stroke="url(#paint12_linear_188_2459)" stroke-width="2" stroke-linecap="round" stroke-linejoin="round"/>
<path d="M25.5898 24.9231V18.2585C25.5899 18.0526 25.6588 17.8526 25.7856 17.6903C25.9124 17.5281 26.0898 17.4129 26.2895 17.3631L31.828 15.9785C31.964 15.9445 32.106 15.942 32.2432 15.9712C32.3803 16.0003 32.5091 16.0603 32.6196 16.1466C32.7301 16.2329 32.8195 16.3433 32.8809 16.4693C32.9424 16.5953 32.9744 16.7336 32.9745 16.8738V22.1538" stroke="url(#paint13_linear_188_2459)" stroke-width="2" stroke-linecap="round" stroke-linejoin="round"/>
<path d="M29.2812 22.1538C29.2812 22.6435 29.4758 23.1131 29.822 23.4593C30.1682 23.8055 30.6378 24 31.1274 24C31.617 24 32.0866 23.8055 32.4328 23.4593C32.7791 23.1131 32.9736 22.6435 32.9736 22.1538C32.9736 21.6642 32.7791 21.1946 32.4328 20.8484C32.0866 20.5022 31.617 20.3077 31.1274 20.3077C30.6378 20.3077 30.1682 20.5022 29.822 20.8484C29.4758 21.1946 29.2812 21.6642 29.2812 22.1538Z" stroke="url(#paint14_linear_188_2459)" stroke-width="2" stroke-linecap="round" stroke-linejoin="round"/>
<path d="M5.2817 2.76923H44.0509C44.5406 2.76923 45.0101 2.96373 45.3564 3.30996C45.7026 3.65618 45.8971 4.12575 45.8971 4.61538V7.38461C45.8971 7.62943 45.7998 7.86422 45.6267 8.03733C45.4536 8.21044 45.2188 8.30769 44.974 8.30769H4.35862C4.11381 8.30769 3.87902 8.21044 3.70591 8.03733C3.5328 7.86422 3.43555 7.62943 3.43555 7.38461V4.61538C3.43555 4.12575 3.63005 3.65618 3.97627 3.30996C4.32249 2.96373 4.79207 2.76923 5.2817 2.76923Z" stroke="url(#paint15_linear_188_2459)" stroke-width="2" stroke-linecap="round" stroke-linejoin="round"/>
<path d="M4.14844 3.15877L13.5897 8.30769L24.6666 2.76923L35.7435 8.30769L45.1847 3.15877" stroke="url(#paint16_linear_188_2459)" stroke-width="2" stroke-linecap="round" stroke-linejoin="round"/>
<defs>
<linearGradient id="paint0_linear_188_2459" x1="0.156701" y1="38.1947" x2="12.9112" y2="38.5691" gradientUnits="userSpaceOnUse">
<stop stop-color="#5DCDE9"/>
<stop offset="1" stop-color="#0F75E8"/>
</linearGradient>
<linearGradient id="paint1_linear_188_2459" x1="4.98524" y1="16.7533" x2="6.13766" y2="16.7581" gradientUnits="userSpaceOnUse">
<stop stop-color="#5DCDE9"/>
<stop offset="1" stop-color="#0F75E8"/>
</linearGradient>
<linearGradient id="paint2_linear_188_2459" x1="6.034" y1="31.0284" x2="10.2769" y2="31.2568" gradientUnits="userSpaceOnUse">
<stop stop-color="#5DCDE9"/>
<stop offset="1" stop-color="#0F75E8"/>
</linearGradient>
<linearGradient id="paint3_linear_188_2459" x1="6.034" y1="40.2592" x2="10.2769" y2="40.4875" gradientUnits="userSpaceOnUse">
<stop stop-color="#5DCDE9"/>
<stop offset="1" stop-color="#0F75E8"/>
</linearGradient>
<linearGradient id="paint4_linear_188_2459" x1="49.1753" y1="31.9591" x2="36.4208" y2="31.5847" gradientUnits="userSpaceOnUse">
<stop stop-color="#5DCDE9"/>
<stop offset="1" stop-color="#0F75E8"/>
</linearGradient>
<linearGradient id="paint5_linear_188_2459" x1="43.7548" y1="16.7533" x2="44.9072" y2="16.7581" gradientUnits="userSpaceOnUse">
<stop stop-color="#5DCDE9"/>
<stop offset="1" stop-color="#0F75E8"/>
</linearGradient>
<linearGradient id="paint6_linear_188_2459" x1="37.4188" y1="31.0284" x2="41.6616" y2="31.2568" gradientUnits="userSpaceOnUse">
<stop stop-color="#5DCDE9"/>
<stop offset="1" stop-color="#0F75E8"/>
</linearGradient>
<linearGradient id="paint7_linear_188_2459" x1="37.4188" y1="40.2592" x2="41.6616" y2="40.4875" gradientUnits="userSpaceOnUse">
<stop stop-color="#5DCDE9"/>
<stop offset="1" stop-color="#0F75E8"/>
</linearGradient>
<linearGradient id="paint8_linear_188_2459" x1="5.56185" y1="45.8843" x2="15.9264" y2="59.2725" gradientUnits="userSpaceOnUse">
<stop stop-color="#5DCDE9"/>
<stop offset="1" stop-color="#0F75E8"/>
</linearGradient>
<linearGradient id="paint9_linear_188_2459" x1="14.3798" y1="40.3458" x2="24.417" y2="47.3272" gradientUnits="userSpaceOnUse">
<stop stop-color="#5DCDE9"/>
<stop offset="1" stop-color="#0F75E8"/>
</linearGradient>
<linearGradient id="paint10_linear_188_2459" x1="15.2645" y1="18.1053" x2="19.5073" y2="18.3337" gradientUnits="userSpaceOnUse">
<stop stop-color="#5DCDE9"/>
<stop offset="1" stop-color="#0F75E8"/>
</linearGradient>
<linearGradient id="paint11_linear_188_2459" x1="19.2311" y1="15.7513" x2="22.4198" y2="15.8434" gradientUnits="userSpaceOnUse">
<stop stop-color="#5DCDE9"/>
<stop offset="1" stop-color="#0F75E8"/>
</linearGradient>
<linearGradient id="paint12_linear_188_2459" x1="20.8035" y1="25.4899" x2="25.0464" y2="25.7183" gradientUnits="userSpaceOnUse">
<stop stop-color="#5DCDE9"/>
<stop offset="1" stop-color="#0F75E8"/>
</linearGradient>
<linearGradient id="paint13_linear_188_2459" x1="23.4039" y1="21.8145" x2="31.8976" y2="22.1908" gradientUnits="userSpaceOnUse">
<stop stop-color="#5DCDE9"/>
<stop offset="1" stop-color="#0F75E8"/>
</linearGradient>
<linearGradient id="paint14_linear_188_2459" x1="28.1883" y1="22.7207" x2="32.4312" y2="22.9491" gradientUnits="userSpaceOnUse">
<stop stop-color="#5DCDE9"/>
<stop offset="1" stop-color="#0F75E8"/>
</linearGradient>
<linearGradient id="paint15_linear_188_2459" x1="-9.13336" y1="6.38876" x2="32.6813" y2="23.643" gradientUnits="userSpaceOnUse">
<stop stop-color="#5DCDE9"/>
<stop offset="1" stop-color="#0F75E8"/>
</linearGradient>
<linearGradient id="paint16_linear_188_2459" x1="-7.9986" y1="6.38876" x2="32.8044" y2="22.6604" gradientUnits="userSpaceOnUse">
<stop stop-color="#5DCDE9"/>
<stop offset="1" stop-color="#0F75E8"/>
</linearGradient>
</defs>
</svg>
