<svg width="48" height="48" viewBox="0 0 48 48" fill="none" xmlns="http://www.w3.org/2000/svg">
<g clip-path="url(#clip0_188_2482)">
<path d="M36.3223 23.0521V4.09376C36.3223 3.84479 36.2732 3.59826 36.178 3.36825C36.0827 3.13824 35.943 2.92924 35.767 2.7532C35.5909 2.57715 35.3819 2.43751 35.1519 2.34223C34.9219 2.24696 34.6754 2.19792 34.4264 2.19792H4.0931C3.59029 2.19792 3.10808 2.39766 2.75254 2.7532C2.397 3.10874 2.19727 3.59095 2.19727 4.09376V34.4271C2.19727 34.6761 2.2463 34.9226 2.34158 35.1526C2.43685 35.3826 2.5765 35.5916 2.75254 35.7676C2.92859 35.9437 3.13758 36.0833 3.36759 36.1786C3.59761 36.2739 3.84413 36.3229 4.0931 36.3229H23.0514" stroke="url(#paint0_linear_188_2482)" stroke-width="2.5" stroke-linecap="round" stroke-linejoin="round"/>
<path d="M21.1562 24C21.1562 24.3734 21.2298 24.7432 21.3727 25.0883C21.5156 25.4333 21.7251 25.7468 21.9892 26.0108C22.2532 26.2749 22.5667 26.4844 22.9117 26.6273C23.2568 26.7702 23.6266 26.8438 24 26.8438C24.3734 26.8438 24.7432 26.7702 25.0883 26.6273C25.4333 26.4844 25.7468 26.2749 26.0108 26.0108C26.2749 25.7468 26.4844 25.4333 26.6273 25.0883C26.7702 24.7432 26.8438 24.3734 26.8438 24C26.8438 23.6266 26.7702 23.2568 26.6273 22.9117C26.4844 22.5667 26.2749 22.2532 26.0108 21.9892C25.7468 21.7251 25.4333 21.5156 25.0883 21.3727C24.7432 21.2298 24.3734 21.1562 24 21.1562C23.6266 21.1562 23.2568 21.2298 22.9117 21.3727C22.5667 21.5156 22.2532 21.7251 21.9892 21.9892C21.7251 22.2532 21.5156 22.5667 21.3727 22.9117C21.2298 23.2568 21.1562 23.6266 21.1562 24Z" stroke="url(#paint1_linear_188_2482)" stroke-width="2.5" stroke-linecap="round" stroke-linejoin="round"/>
<path d="M7.88477 25.8958C7.88477 26.2693 7.95832 26.6391 8.10123 26.9841C8.24415 27.3291 8.45361 27.6426 8.71768 27.9067C8.98175 28.1707 9.29524 28.3802 9.64026 28.5231C9.98528 28.666 10.3551 28.7396 10.7285 28.7396C11.102 28.7396 11.4718 28.666 11.8168 28.5231C12.1618 28.3802 12.4753 28.1707 12.7394 27.9067C13.0034 27.6426 13.2129 27.3291 13.3558 26.9841C13.4987 26.6391 13.5723 26.2693 13.5723 25.8958C13.5723 25.5224 13.4987 25.1526 13.3558 24.8076C13.2129 24.4626 13.0034 24.1491 12.7394 23.885C12.4753 23.6209 12.1618 23.4115 11.8168 23.2685C11.4718 23.1256 11.102 23.0521 10.7285 23.0521C10.3551 23.0521 9.98528 23.1256 9.64026 23.2685C9.29524 23.4115 8.98175 23.6209 8.71768 23.885C8.45361 24.1491 8.24415 24.4626 8.10123 24.8076C7.95832 25.1526 7.88477 25.5224 7.88477 25.8958Z" stroke="url(#paint2_linear_188_2482)" stroke-width="2.5" stroke-linecap="round" stroke-linejoin="round"/>
<path d="M13.5723 25.8958V15.0024C13.5724 14.5906 13.7067 14.1901 13.9547 13.8614C14.2026 13.5327 14.5509 13.2937 14.9467 13.1805L24.4259 10.4713C24.7082 10.3906 25.0053 10.3765 25.2939 10.4302C25.5826 10.4839 25.8548 10.6039 26.0891 10.7807C26.3235 10.9575 26.5136 11.1863 26.6444 11.4491C26.7752 11.712 26.8433 12.0016 26.8431 12.2951V24" stroke="url(#paint3_linear_188_2482)" stroke-width="2.5" stroke-linecap="round" stroke-linejoin="round"/>
<path d="M45.8021 26.8438V34.4271H38.2188" stroke="url(#paint4_linear_188_2482)" stroke-width="2.5" stroke-linecap="round" stroke-linejoin="round"/>
<path d="M45.6129 34.4271C45.1796 32.302 44.0307 30.3897 42.3578 29.0093C40.6849 27.629 38.5892 26.8641 36.4205 26.8422C34.2518 26.8203 32.1411 27.5428 30.4407 28.8891C28.7403 30.2354 27.553 32.1241 27.0769 34.2401C26.6008 36.356 26.8647 38.5713 27.8246 40.5161C28.7845 42.461 30.3823 44.0179 32.3514 44.9271C34.3205 45.8362 36.5418 46.0426 38.6447 45.5118C40.7476 44.981 42.6049 43.7451 43.9067 42.0104" stroke="url(#paint5_linear_188_2482)" stroke-width="2.5" stroke-linecap="round" stroke-linejoin="round"/>
</g>
<defs>
<linearGradient id="paint0_linear_188_2482" x1="-7.90397" y1="24.4995" x2="31.3095" y2="26.6101" gradientUnits="userSpaceOnUse">
<stop stop-color="#5DCDE9"/>
<stop offset="1" stop-color="#0F75E8"/>
</linearGradient>
<linearGradient id="paint1_linear_188_2482" x1="19.4727" y1="24.8732" x2="26.0083" y2="25.2249" gradientUnits="userSpaceOnUse">
<stop stop-color="#5DCDE9"/>
<stop offset="1" stop-color="#0F75E8"/>
</linearGradient>
<linearGradient id="paint2_linear_188_2482" x1="6.20123" y1="26.769" x2="12.7368" y2="27.1208" gradientUnits="userSpaceOnUse">
<stop stop-color="#5DCDE9"/>
<stop offset="1" stop-color="#0F75E8"/>
</linearGradient>
<linearGradient id="paint3_linear_188_2482" x1="9.64401" y1="20.5263" x2="24.9054" y2="21.2297" gradientUnits="userSpaceOnUse">
<stop stop-color="#5DCDE9"/>
<stop offset="1" stop-color="#0F75E8"/>
</linearGradient>
<linearGradient id="paint4_linear_188_2482" x1="35.974" y1="31.7997" x2="44.6881" y2="32.2687" gradientUnits="userSpaceOnUse">
<stop stop-color="#5DCDE9"/>
<stop offset="1" stop-color="#0F75E8"/>
</linearGradient>
<linearGradient id="paint5_linear_188_2482" x1="21.2905" y1="39.2315" x2="42.8574" y2="40.3806" gradientUnits="userSpaceOnUse">
<stop stop-color="#5DCDE9"/>
<stop offset="1" stop-color="#0F75E8"/>
</linearGradient>
<clipPath id="clip0_188_2482">
<rect width="48" height="48" fill="white"/>
</clipPath>
</defs>
</svg>
