<svg width="49" height="48" viewBox="0 0 49 48" fill="none" xmlns="http://www.w3.org/2000/svg">
<path d="M10.834 12.9446C4.84576 18.9328 4.84576 28.6417 10.834 34.6299" stroke="url(#paint0_linear_188_2492)" stroke-width="3" stroke-linecap="round"/>
<path d="M17.5898 17.0309C13.8584 20.7623 13.8584 26.8122 17.5898 30.5436" stroke="url(#paint1_linear_188_2492)" stroke-width="3" stroke-linecap="round"/>
<path d="M37.5742 12.9446C43.5624 18.9328 43.5624 28.6417 37.5742 34.6299" stroke="url(#paint2_linear_188_2492)" stroke-width="3" stroke-linecap="round"/>
<path d="M30.8184 17.0309C34.5498 20.7623 34.5498 26.8122 30.8184 30.5436" stroke="url(#paint3_linear_188_2492)" stroke-width="3" stroke-linecap="round"/>
<path d="M26.834 24C26.834 25.3807 25.7147 26.5 24.334 26.5C22.9533 26.5 21.834 25.3807 21.834 24C21.834 22.6193 22.9533 21.5 24.334 21.5C25.7147 21.5 26.834 22.6193 26.834 24Z" stroke="url(#paint4_linear_188_2492)" stroke-width="3"/>
<defs>
<linearGradient id="paint0_linear_188_2492" x1="0.538529" y1="16.8211" x2="12.3273" y2="29.9511" gradientUnits="userSpaceOnUse">
<stop stop-color="#5DCDE9"/>
<stop offset="1" stop-color="#0F75E8"/>
</linearGradient>
<linearGradient id="paint1_linear_188_2492" x1="11.1745" y1="19.4464" x2="18.5204" y2="27.6281" gradientUnits="userSpaceOnUse">
<stop stop-color="#5DCDE9"/>
<stop offset="1" stop-color="#0F75E8"/>
</linearGradient>
<linearGradient id="paint2_linear_188_2492" x1="27.2788" y1="16.8211" x2="39.0676" y2="29.9511" gradientUnits="userSpaceOnUse">
<stop stop-color="#5DCDE9"/>
<stop offset="1" stop-color="#0F75E8"/>
</linearGradient>
<linearGradient id="paint3_linear_188_2492" x1="24.403" y1="19.4464" x2="31.7489" y2="27.6281" gradientUnits="userSpaceOnUse">
<stop stop-color="#5DCDE9"/>
<stop offset="1" stop-color="#0F75E8"/>
</linearGradient>
<linearGradient id="paint4_linear_188_2492" x1="17.9659" y1="25.2282" x2="27.1588" y2="25.723" gradientUnits="userSpaceOnUse">
<stop stop-color="#5DCDE9"/>
<stop offset="1" stop-color="#0F75E8"/>
</linearGradient>
</defs>
</svg>
