<svg width="49" height="48" viewBox="0 0 49 48" fill="none" xmlns="http://www.w3.org/2000/svg">
<path d="M44.7917 17.8973C44.7917 14.5932 43.4791 11.4243 41.1427 9.08796C38.8063 6.75157 35.6375 5.439 32.3333 5.439C29.0292 5.439 25.8604 6.75157 23.524 9.08796C21.1876 11.4243 19.875 14.5932 19.875 17.8973C19.875 27.1299 27.5417 26.7312 27.5417 35.1473C27.5417 37.4348 28.4504 39.6286 30.0679 41.2461C31.6854 42.8636 33.8792 43.7723 36.1667 43.7723C38.4542 43.7723 40.648 42.8636 42.2655 41.2461C43.883 39.6286 44.7917 37.4348 44.7917 35.1473" stroke="url(#paint0_linear_188_2501)" stroke-width="3" stroke-linecap="round" stroke-linejoin="round"/>
<path d="M10.9954 4.22766C8.94852 6.27444 7.32481 8.70436 6.21703 11.3787C5.10924 14.053 4.53906 16.9193 4.53906 19.814C4.53906 22.7087 5.10924 25.575 6.21703 28.2493C7.32481 30.9236 8.94852 33.3536 10.9954 35.4003" stroke="url(#paint1_linear_188_2501)" stroke-width="3" stroke-linecap="round" stroke-linejoin="round"/>
<path d="M16.4246 9.64992C13.7291 12.3457 12.2148 16.0018 12.2148 19.814C12.2148 23.6262 13.7291 27.2823 16.4246 29.9781" stroke="url(#paint2_linear_188_2501)" stroke-width="3" stroke-linecap="round" stroke-linejoin="round"/>
<path d="M38.082 17.8973C38.082 16.3723 37.4762 14.9098 36.3979 13.8315C35.3196 12.7531 33.857 12.1473 32.332 12.1473C30.807 12.1473 29.3445 12.7531 28.2662 13.8315C27.1878 14.9098 26.582 16.3723 26.582 17.8973C26.582 22.4533 30.4154 22.0527 30.4154 25.564C30.4154 26.5807 30.8192 27.5557 31.5381 28.2746C32.257 28.9935 33.232 29.3973 34.2487 29.3973C35.2654 29.3973 36.2404 28.9935 36.9593 28.2746C37.6782 27.5557 38.082 26.5807 38.082 25.564" stroke="url(#paint3_linear_188_2501)" stroke-width="3" stroke-linecap="round" stroke-linejoin="round"/>
<defs>
<linearGradient id="paint0_linear_188_2501" x1="12.4995" y1="30.4909" x2="41.1794" y2="31.4942" gradientUnits="userSpaceOnUse">
<stop stop-color="#5DCDE9"/>
<stop offset="1" stop-color="#0F75E8"/>
</linearGradient>
<linearGradient id="paint1_linear_188_2501" x1="2.62793" y1="24.5998" x2="10.0676" y2="24.6828" gradientUnits="userSpaceOnUse">
<stop stop-color="#5DCDE9"/>
<stop offset="1" stop-color="#0F75E8"/>
</linearGradient>
<linearGradient id="paint2_linear_188_2501" x1="10.9687" y1="22.9349" x2="15.8196" y2="22.989" gradientUnits="userSpaceOnUse">
<stop stop-color="#5DCDE9"/>
<stop offset="1" stop-color="#0F75E8"/>
</linearGradient>
<linearGradient id="paint3_linear_188_2501" x1="23.178" y1="23.4207" x2="36.414" y2="23.8956" gradientUnits="userSpaceOnUse">
<stop stop-color="#5DCDE9"/>
<stop offset="1" stop-color="#0F75E8"/>
</linearGradient>
</defs>
</svg>
