<svg width="24" height="24" viewBox="0 0 24 24" fill="none" xmlns="http://www.w3.org/2000/svg">
<path d="M20 4H4C2.897 4 2 4.897 2 6V18C2 19.103 2.897 20 4 20H20C21.103 20 22 19.103 22 18V6C22 4.897 21.103 4 20 4ZM20 6V6.511L12 12.734L4 6.512V6H20ZM4 18V9.044L11.386 14.789C11.5611 14.9265 11.7773 15.0013 12 15.0013C12.2227 15.0013 12.4389 14.9265 12.614 14.789L20 9.044L20.002 18H4Z" fill="url(#paint0_linear_188_3113)"/>
<defs>
<linearGradient id="paint0_linear_188_3113" x1="-3.92014" y1="14.4564" x2="19.0248" y2="16.0001" gradientUnits="userSpaceOnUse">
<stop stop-color="#5DCDE9"/>
<stop offset="1" stop-color="#0F75E8"/>
</linearGradient>
</defs>
</svg>
