<svg width="16" height="17" viewBox="0 0 16 17" fill="none" xmlns="http://www.w3.org/2000/svg">
<path d="M8.00065 15.1666C8.70668 15.1666 9.32726 14.8007 9.68317 14.2483C9.90572 13.9029 10.474 13.6675 10.8756 13.7544C11.5179 13.8933 12.2154 13.7132 12.7147 13.214C13.2139 12.7147 13.3941 12.0172 13.2551 11.3749C13.1682 10.9733 13.4036 10.405 13.749 10.1824C14.3015 9.82653 14.6673 9.20594 14.6673 8.49992C14.6673 7.79389 14.3015 7.17331 13.749 6.8174C13.4036 6.59485 13.1682 6.02657 13.2551 5.62493C13.3941 4.98262 13.2139 4.28512 12.7147 3.78588C12.2155 3.28664 11.518 3.10651 10.8757 3.24548C10.474 3.33238 9.90572 3.09698 9.68317 2.75154C9.32726 2.19909 8.70668 1.83325 8.00065 1.83325C7.29463 1.83325 6.67405 2.19909 6.31813 2.75154C6.09558 3.09698 5.5273 3.33237 5.12567 3.24547C4.48335 3.10649 3.78585 3.28662 3.28661 3.78586C2.78737 4.2851 2.60724 4.9826 2.74622 5.62491C2.83312 6.02654 2.59772 6.59485 2.25227 6.8174C1.69982 7.17331 1.33398 7.79389 1.33398 8.49992C1.33398 9.20594 1.69982 9.82653 2.25227 10.1824C2.59771 10.405 2.8331 10.9733 2.7462 11.3749C2.60722 12.0172 2.78735 12.7147 3.28659 13.214C3.78583 13.7132 4.48333 13.8933 5.12563 13.7543C5.52727 13.6674 6.09558 13.9029 6.31813 14.2483C6.67405 14.8007 7.29463 15.1666 8.00065 15.1666Z" fill="#147AE9" stroke="#147AE9" stroke-linecap="round"/>
<path d="M5.33398 8.83325L7.00065 10.4999L10.6673 6.83325" stroke="white" stroke-linecap="round"/>
</svg>
