<svg width="16" height="16" viewBox="0 0 16 16" fill="none" xmlns="http://www.w3.org/2000/svg">
<g clip-path="url(#clip0_188_10730)">
<path d="M0.486328 12.8999C0.486328 14.9117 2.66411 16.169 4.40639 15.1631C5.21492 14.6963 5.71303 13.8336 5.71303 12.8999C5.71303 10.8882 3.53525 9.63086 1.79304 10.6367C0.984436 11.1036 0.486328 11.9663 0.486328 12.8999Z" stroke="url(#paint0_linear_188_10730)" stroke-linecap="round" stroke-linejoin="round"/>
<path d="M10.2871 10.9876C10.2871 12.9993 12.4649 14.2567 14.2071 13.2508C15.0157 12.7839 15.5138 11.9213 15.5138 10.9876C15.5138 8.97581 13.336 7.71851 11.5938 8.72439C10.7852 9.19116 10.2871 10.0539 10.2871 10.9876Z" stroke="url(#paint1_linear_188_10730)" stroke-linecap="round" stroke-linejoin="round"/>
<path opacity="0.99" d="M5.69727 13.1311V3.33105C5.69827 2.58612 6.23711 1.95093 6.97191 1.82839L13.7372 0.507344C14.6661 0.352998 15.5118 1.06839 15.5136 2.01V11.1887" stroke="url(#paint2_linear_188_10730)" stroke-linecap="round" stroke-linejoin="round"/>
<path d="M5.69727 5.03183L15.5136 3.20581" stroke="url(#paint3_linear_188_10730)" stroke-linecap="round" stroke-linejoin="round"/>
</g>
<defs>
<linearGradient id="paint0_linear_188_10730" x1="-1.06081" y1="13.7036" x2="4.9453" y2="14.0263" gradientUnits="userSpaceOnUse">
<stop stop-color="#5DCDE9"/>
<stop offset="1" stop-color="#0F75E8"/>
</linearGradient>
<linearGradient id="paint1_linear_188_10730" x1="8.73997" y1="11.7912" x2="14.7461" y2="12.114" gradientUnits="userSpaceOnUse">
<stop stop-color="#5DCDE9"/>
<stop offset="1" stop-color="#0F75E8"/>
</linearGradient>
<linearGradient id="paint2_linear_188_10730" x1="2.79156" y1="8.75" x2="14.0846" y2="9.22186" gradientUnits="userSpaceOnUse">
<stop stop-color="#5DCDE9"/>
<stop offset="1" stop-color="#0F75E8"/>
</linearGradient>
<linearGradient id="paint3_linear_188_10730" x1="2.79156" y1="4.39916" x2="13.2304" y2="7.41952" gradientUnits="userSpaceOnUse">
<stop stop-color="#5DCDE9"/>
<stop offset="1" stop-color="#0F75E8"/>
</linearGradient>
<clipPath id="clip0_188_10730">
<rect width="16" height="16" fill="white"/>
</clipPath>
</defs>
</svg>
