<svg width="18" height="17" viewBox="0 0 18 17" fill="none" xmlns="http://www.w3.org/2000/svg">
<path d="M10.4536 1.19455L16.727 5.27222C16.9486 5.41631 17.0595 5.48835 17.1398 5.58445C17.2109 5.66952 17.2643 5.76791 17.2968 5.87387C17.3337 5.99357 17.3337 6.12577 17.3337 6.39015V12.4999C17.3337 13.9 17.3337 14.6001 17.0612 15.1349C16.8215 15.6053 16.439 15.9877 15.9686 16.2274C15.4339 16.4999 14.7338 16.4999 13.3337 16.4999H4.66699C3.26686 16.4999 2.5668 16.4999 2.03202 16.2274C1.56161 15.9877 1.17916 15.6053 0.939476 15.1349C0.666992 14.6001 0.666992 13.9 0.666992 12.4999V6.39015C0.666992 6.12577 0.666992 5.99357 0.703801 5.87387C0.736384 5.76791 0.789781 5.66952 0.860865 5.58445C0.941168 5.48835 1.052 5.41631 1.27367 5.27223L7.54702 1.19455M10.4536 1.19455C9.92759 0.852624 9.66457 0.681662 9.38118 0.615144C9.13068 0.556345 8.86997 0.556345 8.61947 0.615144C8.33608 0.681662 8.07306 0.852625 7.54702 1.19455M10.4536 1.19455L15.6138 4.54864C16.187 4.92123 16.4736 5.10752 16.5728 5.34377C16.6596 5.55023 16.6596 5.78291 16.5728 5.98937C16.4736 6.22562 16.187 6.41191 15.6138 6.78449L10.4536 10.1386C9.9276 10.4805 9.66457 10.6515 9.38118 10.718C9.13068 10.7768 8.86997 10.7768 8.61947 10.718C8.33608 10.6515 8.07306 10.4805 7.54702 10.1386L2.38688 6.78449C1.81367 6.41191 1.52707 6.22562 1.4278 5.98937C1.34106 5.78291 1.34106 5.55023 1.4278 5.34377C1.52707 5.10752 1.81367 4.92123 2.38688 4.54864L7.54702 1.19455M16.917 14.8332L11.3813 9.83324M6.61934 9.83324L1.08366 14.8332" stroke="url(#paint0_linear_188_10758)" stroke-linecap="round" stroke-linejoin="round"/>
<defs>
<linearGradient id="paint0_linear_188_10758" x1="-4.26646" y1="10.981" x2="14.8802" y2="12.0592" gradientUnits="userSpaceOnUse">
<stop stop-color="#5DCDE9"/>
<stop offset="1" stop-color="#0F75E8"/>
</linearGradient>
</defs>
</svg>
