<svg width="24" height="24" viewBox="0 0 24 24" fill="none" xmlns="http://www.w3.org/2000/svg">
<path d="M19.8255 17.6794C19.7128 18.4587 18.1221 20.4798 17.3901 20.7728C17.141 20.8726 16.8995 20.8479 16.7063 20.6998C16.5818 20.6032 16.4541 20.4079 14.7389 17.6236L14.2291 16.7939C14.0326 16.4966 14.0702 16.1048 14.3128 15.8064C14.5521 15.5166 14.902 15.4093 15.2058 15.5252C15.223 15.5338 16.4884 15.9514 16.4884 15.9514C19.3736 16.8991 19.467 16.9356 19.5915 17.0268C19.774 17.176 19.8587 17.409 19.8212 17.6794H19.8255ZM14.0444 13.444C13.8405 13.1338 13.8437 12.7678 14.0552 12.5156L14.8559 11.4218C16.6183 9.02291 16.7149 8.89626 16.8341 8.81254C16.9375 8.74544 17.0572 8.70762 17.1804 8.70308C17.3036 8.69855 17.4258 8.72747 17.5339 8.78678C18.2326 9.12596 19.6441 11.2222 19.7289 12.0272V12.054C19.744 12.1744 19.7262 12.2966 19.6772 12.4076C19.6282 12.5186 19.55 12.6142 19.4509 12.6841C19.3189 12.7689 19.1986 12.8183 15.9185 13.6136C15.4001 13.7456 15.1113 13.8175 14.9418 13.8787L14.9643 13.854C14.6401 13.9517 14.2774 13.795 14.0723 13.4709L14.0444 13.444ZM12.0319 12.2C11.8752 12.2494 11.3976 12.3986 10.8094 11.4465C10.8094 11.4465 6.84445 5.20718 6.75214 5.01505C6.69525 4.7993 6.76395 4.55458 6.95607 4.35709C7.54641 3.74635 10.7493 2.84904 11.5876 3.05297C11.8613 3.12381 12.0491 3.29662 12.1146 3.5392C12.1629 3.80753 12.5525 9.5993 12.6083 10.8959C12.663 12.0057 12.1876 12.1528 12.0319 12.2ZM12.5546 18.5467C12.5461 21.581 12.5385 21.683 12.4892 21.8268C12.4044 22.0533 12.2101 22.2047 11.9418 22.254C11.169 22.385 8.75178 21.492 8.24838 20.8941C8.15665 20.7798 8.09832 20.6424 8.07987 20.497C8.06591 20.4004 8.07987 20.3038 8.11529 20.219C8.17647 20.0623 8.26019 19.941 10.4316 17.3961L11.0691 16.6383C11.287 16.3592 11.6734 16.2755 12.0341 16.4193C12.3829 16.5524 12.6008 16.854 12.5772 17.1793V18.5306L12.5546 18.5467ZM5.97504 16.6061C5.73675 16.5997 5.52423 16.4558 5.4008 16.2218C5.31171 16.048 5.24838 15.7624 5.2076 15.4147C5.09811 14.3692 5.23228 12.7914 5.54463 12.2902C5.69275 12.0605 5.90742 11.9392 6.14463 11.9478C6.30133 11.9478 6.44087 11.9972 9.54391 13.2744L10.4541 13.6361C10.7783 13.7553 10.979 14.0945 10.9607 14.4809C10.9371 14.8544 10.7203 15.142 10.4015 15.2279L9.11135 15.6379C6.22513 16.5653 6.1296 16.5911 5.97826 16.5793L5.97504 16.6061ZM18.018 22.3184H18.0137L18.0104 22.3216L18.018 22.3184Z" fill="black"/>
</svg>
