<svg width="126" height="40" viewBox="0 0 126 40" fill="none" xmlns="http://www.w3.org/2000/svg">
<g clip-path="url(#clip0_188_2297)">
<mask id="mask0_188_2297" style="mask-type:luminance" maskUnits="userSpaceOnUse" x="0" y="6" width="28" height="28">
<path d="M28 6.5H0V33.5H28V6.5Z" fill="white"/>
</mask>
<g mask="url(#mask0_188_2297)">
<path d="M4.66667 17.75C4.66667 16.5074 3.622 15.5 2.33333 15.5C1.04467 15.5 0 16.5074 0 17.75V22.25C0 23.4926 1.04467 24.5 2.33333 24.5C3.622 24.5 4.66667 23.4926 4.66667 22.25V17.75Z" fill="url(#paint0_linear_188_2297)"/>
<path d="M10.5007 13.25C10.5007 12.0074 9.45596 11 8.16732 11C6.87868 11 5.83398 12.0074 5.83398 13.25V26.75C5.83398 27.9926 6.87868 29 8.16732 29C9.45596 29 10.5007 27.9926 10.5007 26.75V13.25Z" fill="url(#paint1_linear_188_2297)"/>
<path d="M16.3327 8.75C16.3327 7.50736 15.288 6.5 13.9993 6.5C12.7107 6.5 11.666 7.50736 11.666 8.75V31.25C11.666 32.4926 12.7107 33.5 13.9993 33.5C15.288 33.5 16.3327 32.4926 16.3327 31.25V8.75Z" fill="url(#paint2_linear_188_2297)"/>
<path d="M22.1667 13.25C22.1667 12.0074 21.122 11 19.8333 11C18.5447 11 17.5 12.0074 17.5 13.25V26.75C17.5 27.9926 18.5447 29 19.8333 29C21.122 29 22.1667 27.9926 22.1667 26.75V13.25Z" fill="url(#paint3_linear_188_2297)"/>
<path d="M28.0007 17.75C28.0007 16.5074 26.956 15.5 25.6673 15.5C24.3787 15.5 23.334 16.5074 23.334 17.75V22.25C23.334 23.4926 24.3787 24.5 25.6673 24.5C26.956 24.5 28.0007 23.4926 28.0007 22.25V17.75Z" fill="url(#paint4_linear_188_2297)"/>
</g>
</g>
<path d="M37.1702 12.354V30.2632H33.707V12.354H37.1702ZM47.6913 15.8435C49.3239 15.8435 50.6432 16.3823 51.6492 17.4599C52.6552 18.5204 53.1581 20.0086 53.1581 21.9244V30.2632H49.6949V22.4119C49.6949 21.2829 49.4228 20.4191 48.8786 19.8204C48.3344 19.2047 47.5923 18.8968 46.6523 18.8968C45.6958 18.8968 44.9373 19.2047 44.3765 19.8204C43.8323 20.4191 43.5602 21.2829 43.5602 22.4119V30.2632H40.0971V16.0487H43.5602V17.8191C44.022 17.2033 44.6074 16.7244 45.3165 16.3823C46.0421 16.0231 46.8337 15.8435 47.6913 15.8435ZM59.9887 18.9994V25.8757C59.9887 26.3547 60.096 26.7053 60.3103 26.9277C60.5413 27.1329 60.9205 27.2356 61.4482 27.2356H63.0561V30.2632H60.8793C57.9603 30.2632 56.5008 28.7922 56.5008 25.8501V18.9994H54.8682V16.0487H56.5008V12.5336H59.9887V16.0487H63.0561V18.9994H59.9887ZM77.7917 22.8481C77.7917 23.3612 77.7588 23.8231 77.6928 24.2336H67.6744C67.7568 25.2599 68.1031 26.0638 68.7133 26.6454C69.3235 27.2271 70.0738 27.5178 70.9644 27.5178C72.2507 27.5178 73.166 26.9448 73.7102 25.7987H77.4454C77.0496 27.1671 76.291 28.2961 75.1696 29.1856C74.0483 30.0579 72.6712 30.4941 71.0386 30.4941C69.7193 30.4941 68.532 30.1948 67.4765 29.5961C66.4375 28.9803 65.6212 28.1165 65.0275 27.0047C64.4504 25.8928 64.1617 24.61 64.1617 23.156C64.1617 21.685 64.4504 20.3934 65.0275 19.2816C65.6047 18.1698 66.4128 17.3145 67.4517 16.7158C68.4907 16.1172 69.6863 15.8178 71.0386 15.8178C72.3414 15.8178 73.5041 16.1086 74.5265 16.6902C75.5654 17.2718 76.3652 18.1014 76.926 19.179C77.5031 20.2395 77.7917 21.4626 77.7917 22.8481ZM74.2049 21.8218C74.1884 20.8981 73.8668 20.1625 73.2402 19.6152C72.6135 19.0507 71.8467 18.7685 70.9396 18.7685C70.0821 18.7685 69.3565 19.0422 68.7628 19.5895C68.1856 20.1198 67.831 20.8639 67.6991 21.8218H74.2049ZM83.288 18.2553C83.7332 17.5027 84.3104 16.9126 85.0196 16.4849C85.7451 16.0573 86.5698 15.8435 87.4932 15.8435V19.6152H86.578C85.4896 19.6152 84.665 19.8803 84.1043 20.4106C83.5601 20.9409 83.288 21.8646 83.288 23.1816V30.2632H79.8248V16.0487H83.288V18.2553ZM95.0453 26.9533L98.5085 16.0487H102.194L97.1232 30.2632H92.9179L87.8716 16.0487H91.5821L95.0453 26.9533ZM102.754 23.1047C102.754 21.6678 103.026 20.3934 103.57 19.2816C104.131 18.1698 104.881 17.3145 105.821 16.7158C106.778 16.1172 107.842 15.8178 109.013 15.8178C110.035 15.8178 110.926 16.0316 111.684 16.4593C112.459 16.8869 113.078 17.4257 113.539 18.0757V16.0487H117.027V30.2632H113.539V28.1849C113.094 28.852 112.476 29.408 111.684 29.8527C110.909 30.2803 110.01 30.4941 108.988 30.4941C107.833 30.4941 106.778 30.1862 105.821 29.5704C104.881 28.9547 104.131 28.0908 103.57 26.979C103.026 25.8501 102.754 24.5586 102.754 23.1047ZM113.539 23.156C113.539 22.2836 113.375 21.5395 113.045 20.9237C112.715 20.2908 112.27 19.8119 111.709 19.4869C111.148 19.1448 110.546 18.9737 109.903 18.9737C109.26 18.9737 108.666 19.1362 108.122 19.4612C107.578 19.7863 107.133 20.2651 106.786 20.8981C106.456 21.5139 106.291 22.2494 106.291 23.1047C106.291 23.9599 106.456 24.7126 106.786 25.3626C107.133 25.9955 107.578 26.483 108.122 26.8251C108.683 27.1671 109.276 27.3382 109.903 27.3382C110.546 27.3382 111.148 27.1757 111.709 26.8507C112.27 26.5086 112.715 26.0297 113.045 25.4139C113.375 24.7809 113.539 24.0283 113.539 23.156ZM123.378 11.2764V30.2632H119.915V11.2764H123.378Z" fill="black"/>
<path d="M91.13 6.99446C91.8899 6.99446 92.5074 7.24488 92.9823 7.74572C93.4652 8.23836 93.7066 8.95678 93.7066 9.90099V13.842H92.8873V9.99951C92.8873 9.26878 92.7171 8.71046 92.3767 8.32457C92.0364 7.93867 91.5733 7.74572 90.9875 7.74572C90.378 7.74572 89.8912 7.95509 89.5271 8.37383C89.1629 8.79257 88.9809 9.40015 88.9809 10.1966V13.842H88.1616V9.99951C88.1616 9.26878 87.9914 8.71046 87.651 8.32457C87.3106 7.93867 86.8436 7.74572 86.2499 7.74572C85.6404 7.74572 85.1536 7.95509 84.7895 8.37383C84.4253 8.79257 84.2433 9.40015 84.2433 10.1966V13.842H83.4121V7.11762H84.2433V8.2753C84.4491 7.85657 84.742 7.54046 85.1219 7.32699C85.5019 7.1053 85.9254 6.99446 86.3924 6.99446C86.9544 6.99446 87.4452 7.13404 87.8647 7.4132C88.2922 7.69236 88.6009 8.10288 88.7909 8.64478C88.965 8.11109 89.2619 7.70467 89.6814 7.42551C90.1089 7.13815 90.5917 6.99446 91.13 6.99446ZM101.169 7.11762V13.842H100.338V12.6597C100.148 13.0785 99.8547 13.3987 99.4589 13.6204C99.0631 13.842 98.6198 13.9529 98.1291 13.9529C97.3533 13.9529 96.72 13.7066 96.2293 13.2139C95.7385 12.7131 95.4931 11.9906 95.4931 11.0464V7.11762H96.3124V10.9478C96.3124 11.6786 96.4865 12.2369 96.8348 12.6228C97.191 13.0087 97.6739 13.2016 98.2834 13.2016C98.9088 13.2016 99.4075 12.9964 99.7795 12.5858C100.152 12.1753 100.338 11.5718 100.338 10.7754V7.11762H101.169ZM105.299 13.9406C104.554 13.9406 103.945 13.764 103.47 13.411C103.003 13.0497 102.742 12.5612 102.686 11.9454H103.541C103.581 12.3231 103.751 12.631 104.052 12.8691C104.361 13.099 104.772 13.2139 105.287 13.2139C105.738 13.2139 106.09 13.1031 106.343 12.8814C106.605 12.6597 106.735 12.3847 106.735 12.0563C106.735 11.8264 106.664 11.6375 106.522 11.4897C106.379 11.3419 106.197 11.227 105.975 11.1449C105.762 11.0546 105.469 10.9601 105.097 10.8616C104.614 10.7303 104.222 10.5989 103.921 10.4675C103.62 10.3361 103.363 10.1432 103.149 9.88867C102.944 9.62593 102.841 9.27699 102.841 8.84183C102.841 8.51341 102.936 8.20962 103.126 7.93046C103.316 7.6513 103.585 7.42962 103.933 7.26541C104.281 7.1012 104.677 7.01909 105.12 7.01909C105.817 7.01909 106.379 7.20383 106.807 7.5733C107.234 7.93457 107.464 8.43541 107.495 9.07583H106.664C106.64 8.68172 106.49 8.36562 106.213 8.12751C105.944 7.8812 105.572 7.75804 105.097 7.75804C104.677 7.75804 104.337 7.86067 104.076 8.06594C103.814 8.2712 103.684 8.52572 103.684 8.82951C103.684 9.09225 103.759 9.30983 103.909 9.48225C104.068 9.64646 104.262 9.77783 104.491 9.87636C104.721 9.96667 105.029 10.0693 105.417 10.1843C105.884 10.3156 106.256 10.4429 106.533 10.566C106.81 10.6892 107.048 10.8698 107.246 11.1079C107.444 11.346 107.547 11.6621 107.555 12.0563C107.555 12.4175 107.46 12.7418 107.27 13.0292C107.08 13.3084 106.814 13.53 106.474 13.6943C106.134 13.8585 105.742 13.9406 105.299 13.9406ZM109.535 5.84909C109.368 5.84909 109.226 5.78751 109.107 5.66436C108.989 5.5412 108.929 5.3893 108.929 5.20867C108.929 5.02804 108.989 4.88025 109.107 4.7653C109.226 4.64215 109.368 4.58057 109.535 4.58057C109.701 4.58057 109.843 4.64215 109.962 4.7653C110.081 4.88025 110.14 5.02804 110.14 5.20867C110.14 5.3893 110.081 5.5412 109.962 5.66436C109.843 5.78751 109.701 5.84909 109.535 5.84909ZM109.95 7.11762V13.842H109.119V7.11762H109.95ZM111.453 10.4798C111.453 9.78194 111.587 9.17436 111.856 8.65709C112.125 8.13162 112.497 7.7293 112.972 7.45015C113.447 7.16278 113.99 7.01909 114.599 7.01909C115.399 7.01909 116.056 7.22436 116.57 7.63488C117.093 8.04541 117.429 8.60372 117.579 9.30983H116.689C116.578 8.82541 116.337 8.44772 115.965 8.17678C115.6 7.89762 115.145 7.75804 114.599 7.75804C114.164 7.75804 113.772 7.86067 113.424 8.06594C113.075 8.2712 112.798 8.57909 112.592 8.98962C112.394 9.39194 112.296 9.88867 112.296 10.4798C112.296 11.071 112.394 11.5718 112.592 11.9824C112.798 12.3929 113.075 12.7008 113.424 12.906C113.772 13.1113 114.164 13.2139 114.599 13.2139C115.145 13.2139 115.6 13.0785 115.965 12.8075C116.337 12.5284 116.578 12.1425 116.689 11.6498H117.579C117.429 12.3395 117.093 12.8937 116.57 13.3125C116.048 13.7312 115.391 13.9406 114.599 13.9406C113.99 13.9406 113.447 13.801 112.972 13.5218C112.497 13.2345 112.125 12.8321 111.856 12.3149C111.587 11.7894 111.453 11.1777 111.453 10.4798Z" fill="black"/>
<defs>
<linearGradient id="paint0_linear_188_2297" x1="-1.38137" y1="21.3817" x2="3.9925" y2="21.5317" gradientUnits="userSpaceOnUse">
<stop stop-color="#5DCDE9"/>
<stop offset="1" stop-color="#0F75E8"/>
</linearGradient>
<linearGradient id="paint1_linear_188_2297" x1="4.45262" y1="22.7635" x2="9.82963" y2="22.8385" gradientUnits="userSpaceOnUse">
<stop stop-color="#5DCDE9"/>
<stop offset="1" stop-color="#0F75E8"/>
</linearGradient>
<linearGradient id="paint2_linear_188_2297" x1="10.2846" y1="24.1452" x2="15.6622" y2="24.1953" gradientUnits="userSpaceOnUse">
<stop stop-color="#5DCDE9"/>
<stop offset="1" stop-color="#0F75E8"/>
</linearGradient>
<linearGradient id="paint3_linear_188_2297" x1="16.1186" y1="22.7635" x2="21.4956" y2="22.8385" gradientUnits="userSpaceOnUse">
<stop stop-color="#5DCDE9"/>
<stop offset="1" stop-color="#0F75E8"/>
</linearGradient>
<linearGradient id="paint4_linear_188_2297" x1="21.9526" y1="21.3817" x2="27.3265" y2="21.5317" gradientUnits="userSpaceOnUse">
<stop stop-color="#5DCDE9"/>
<stop offset="1" stop-color="#0F75E8"/>
</linearGradient>
<clipPath id="clip0_188_2297">
<rect width="28" height="27" fill="white" transform="translate(0 6.5)"/>
</clipPath>
</defs>
</svg>
